<svg width="40" height="41" viewBox="0 0 40 41" fill="none" xmlns="http://www.w3.org/2000/svg">
<circle cx="20" cy="20.8623" r="19.5" stroke="#FFBE50"/>
<path d="M32.8599 21.2528C32.8599 14.1087 27.1036 8.31714 20.0028 8.31714C12.902 8.31714 7.14563 14.1087 7.14563 21.2528C7.14563 27.7093 11.8473 33.061 17.9938 34.0314V24.9921H14.7293V21.2528H17.9938V18.4029C17.9938 15.1609 19.9134 13.3701 22.8501 13.3701C24.2569 13.3701 25.7282 13.6228 25.7282 13.6228V16.8062H24.107C22.5099 16.8062 22.0117 17.8034 22.0117 18.8264V21.2528H25.5775L25.0075 24.9921H22.0117V34.0314C28.1583 33.061 32.8599 27.7096 32.8599 21.2528Z" fill="#FFBE50"/>
</svg>
