<svg width="40" height="41" viewBox="0 0 40 41" fill="none" xmlns="http://www.w3.org/2000/svg">
<circle cx="20" cy="20.8623" r="19.5" stroke="#FFBE50"/>
<path d="M30.9999 16.9811C30.9999 18.4881 29.7679 19.7311 28.2499 19.7311C26.7319 19.7311 25.4999 18.4881 25.4999 16.9811C25.4999 18.4881 24.2679 19.7311 22.7499 19.7311C21.2319 19.7311 19.9999 18.4881 19.9999 16.9811C19.9999 18.4881 18.7679 19.7311 17.2499 19.7311C15.7319 19.7311 14.4999 18.4881 14.4999 16.9811C14.4999 18.4881 13.2679 19.7311 11.7499 19.7311C10.2319 19.7311 8.99988 18.4881 8.99988 16.9811L10.5289 11.0191C10.5289 11.0191 10.8479 9.83105 11.9699 9.83105H28.0299C29.1519 9.83105 29.4709 11.0191 29.4709 11.0191L30.9999 16.9811ZM29.8999 21.0511V29.6311C29.8999 30.8411 28.9099 31.8311 27.6999 31.8311H12.2999C11.0899 31.8311 10.0999 30.8411 10.0999 29.6311V21.0511C10.823 21.3496 11.6132 21.4479 12.3874 21.3357C13.1616 21.2234 13.8913 20.9047 14.4999 20.4131C15.2589 21.0181 16.2159 21.3811 17.2499 21.3811C18.2949 21.3811 19.2519 21.0181 19.9999 20.4131C20.7589 21.0181 21.7159 21.3811 22.7499 21.3811C23.7949 21.3811 24.7519 21.0181 25.4999 20.4131C26.2479 21.0181 27.2159 21.3811 28.2499 21.3811C28.8329 21.3811 29.3939 21.2601 29.8999 21.0511ZM27.6999 26.6941C27.6999 26.4741 27.6999 26.2431 27.6449 26.0011L27.6119 25.8251H24.3449V27.1121H26.3359C26.2699 27.3541 26.1819 27.5961 25.9949 27.7941C25.6319 28.1571 25.1369 28.3551 24.6089 28.3551C24.0589 28.3551 23.5199 28.1241 23.1239 27.7391C22.3649 26.9581 22.3649 25.6931 23.1459 24.9011C23.9049 24.1311 25.1589 24.1311 25.9509 24.8681L26.1049 25.0111L27.0289 24.0761L26.8529 23.9221C26.2369 23.3501 25.4229 23.0311 24.5649 23.0311H24.5539C23.6629 23.0311 22.8269 23.3721 22.1999 23.9881C21.5509 24.6261 21.1879 25.4621 21.1879 26.3311C21.1879 27.2111 21.5289 28.0251 22.1559 28.6301C22.8093 29.2678 23.6849 29.6267 24.5979 29.6311H24.6199C25.4999 29.6311 26.2809 29.3121 26.8529 28.7511C27.3699 28.2231 27.6999 27.4311 27.6999 26.6941Z" fill="#FFBE50"/>
</svg>
