<svg width="40" height="41" viewBox="0 0 40 41" fill="none" xmlns="http://www.w3.org/2000/svg">
<circle cx="20" cy="20.8623" r="19.5" stroke="#FFBE50"/>
<path fill-rule="evenodd" clip-rule="evenodd" d="M24.8097 9.56958H14.524C10.9736 9.56958 8.09546 12.4478 8.09546 15.9982V26.2839C8.09546 29.8342 10.9736 32.7124 14.524 32.7124H24.8097C28.3601 32.7124 31.2383 29.8342 31.2383 26.2839V15.9982C31.2383 12.4478 28.3601 9.56958 24.8097 9.56958ZM28.9883 26.2839C28.9812 28.5886 27.1145 30.4554 24.8097 30.4624H14.524C12.2192 30.4554 10.3525 28.5886 10.3455 26.2839V15.9982C10.3525 13.6933 12.2192 11.8266 14.524 11.8196H24.8097C27.1145 11.8266 28.9812 13.6933 28.9883 15.9982V26.2839ZM25.774 16.3196C26.4841 16.3196 27.0597 15.7439 27.0597 15.0339C27.0597 14.3238 26.4841 13.7482 25.774 13.7482C25.0639 13.7482 24.4883 14.3238 24.4883 15.0339C24.4883 15.7439 25.0639 16.3196 25.774 16.3196ZM19.6669 15.3553C16.4715 15.3553 13.8812 17.9456 13.8812 21.141C13.8812 24.3364 16.4715 26.9267 19.6669 26.9267C22.8623 26.9267 25.4526 24.3364 25.4526 21.141C25.4561 19.6055 24.8475 18.1319 23.7618 17.0461C22.676 15.9603 21.2024 15.3519 19.6669 15.3553ZM16.1312 21.141C16.1312 23.0938 17.7141 24.6767 19.6669 24.6767C21.6196 24.6767 23.2026 23.0938 23.2026 21.141C23.2026 19.1883 21.6196 17.6053 19.6669 17.6053C17.7141 17.6053 16.1312 19.1883 16.1312 21.141Z" fill="#FFBE50"/>
</svg>
